<svg version="1.1" id="Layer_1" xmlns="http://www.w3.org/2000/svg" xmlns:xlink="http://www.w3.org/1999/xlink" x="0px" y="0px"
	 width="100%" viewBox="0 0 1280 1473" enable-background="new 0 0 1280 1473" xml:space="preserve">
<path fill="#FFFFFF" opacity="1.000000" stroke="none" 
	d="
M712.000000,1474.000000 
	C474.666656,1474.000000 237.833328,1474.000000 1.000000,1474.000000 
	C1.000000,983.000000 1.000000,492.000000 1.000000,1.000000 
	C427.666656,1.000000 854.333313,1.000000 1281.000000,1.000000 
	C1281.000000,492.000000 1281.000000,983.000000 1281.000000,1474.000000 
	C1091.500000,1474.000000 902.000000,1474.000000 712.000000,1474.000000 
M529.173950,1255.247314 
	C527.870911,1255.010376 526.554932,1254.829224 525.266785,1254.528687 
	C468.196533,1241.209595 415.525787,1217.996582 367.517090,1184.320557 
	C308.364899,1142.828003 261.604309,1090.252319 227.476944,1026.610229 
	C191.618271,959.739563 174.229233,888.126587 174.088776,812.323669 
	C173.960297,742.993469 174.057556,673.662903 174.068039,604.332458 
	C174.068298,602.586182 174.216934,600.839905 174.289444,599.245483 
	C195.847092,599.245483 216.745392,599.245483 238.215164,599.245483 
	C238.215164,694.717346 238.215164,789.776794 238.215164,884.674194 
	C316.183563,884.674194 393.572723,884.674194 470.917725,884.674194 
	C470.917725,765.970276 470.917725,647.722168 470.917725,528.917542 
	C416.504913,528.917542 362.433472,528.917542 307.839203,528.917542 
	C307.839203,526.242981 307.839203,524.119751 307.839203,521.996521 
	C307.839172,423.667297 307.955841,325.337677 307.624115,227.009583 
	C307.596741,218.892227 309.834320,215.055893 317.253296,211.439972 
	C383.702881,179.053268 449.892212,146.132523 516.161804,113.376396 
	C517.845764,112.544044 519.572693,111.798676 522.172363,110.601662 
	C522.172363,369.425812 522.172363,627.140076 522.172363,884.805054 
	C616.347656,884.805054 709.934692,884.805054 804.182129,884.805054 
	C804.182129,779.784241 804.182129,675.085938 804.182129,570.429565 
	C831.096252,570.429565 857.347839,570.429565 884.089050,570.429565 
	C884.089050,675.349060 884.089050,779.931763 884.089050,884.680054 
	C907.590820,884.680054 930.597229,884.680054 953.468872,884.680054 
	C953.468872,756.516541 953.468872,628.803162 953.468872,500.511871 
	C903.454102,500.511871 853.880920,500.511871 803.776978,500.511871 
	C803.776978,439.357452 803.776978,378.780457 803.776978,317.870239 
	C801.260254,317.870239 799.278992,317.870239 797.297668,317.870239 
	C730.967102,317.870239 664.636536,317.870422 598.305969,317.869934 
	C591.203796,317.869873 591.200500,317.868042 591.200439,310.944275 
	C591.199707,211.448441 591.199890,111.952606 591.199890,12.456769 
	C591.199890,10.398520 591.199890,8.340269 591.199890,5.567486 
	C588.459412,6.854324 586.666565,7.647872 584.915771,8.525177 
	C470.881073,65.666855 356.859375,122.834404 242.774734,179.876053 
	C239.135956,181.695419 237.886002,183.701096 237.890335,187.766220 
	C238.009171,299.261414 237.985428,410.756744 237.985397,522.252075 
	C237.985397,524.354553 237.985397,526.456970 237.985397,529.142334 
	C193.098297,529.142334 148.879898,529.142334 104.234581,529.142334 
	C104.234581,531.701843 104.234581,533.671875 104.234581,535.641907 
	C104.234581,621.971619 104.147369,708.301514 104.307495,794.630920 
	C104.339882,812.092346 105.128357,829.559753 105.884491,847.010742 
	C107.148285,876.178284 111.672501,904.926819 118.417740,933.280762 
	C140.419891,1025.767700 184.442841,1106.393433 250.031799,1175.142456 
	C279.594025,1206.128906 312.675659,1232.933594 349.002167,1255.688110 
	C432.906403,1308.244751 524.523010,1334.503906 623.352173,1335.697632 
	C652.000183,1336.043701 680.512451,1333.633301 708.866028,1329.171021 
	C760.711792,1321.011719 810.158813,1305.351929 857.176147,1282.151733 
	C917.004639,1252.629883 969.318970,1213.077881 1014.100403,1163.573242 
	C1045.005371,1129.408691 1070.976929,1091.852295 1091.974487,1050.864380 
	C1116.281616,1003.416077 1133.000977,953.381042 1141.588989,900.791016 
	C1144.718628,881.625916 1146.833984,862.193481 1147.780518,842.803406 
	C1148.654175,824.905762 1133.254150,810.118042 1114.156860,809.381653 
	C1096.185913,808.688660 1081.213135,821.974976 1078.970703,838.523987 
	C1077.363647,850.382263 1076.602295,862.353821 1075.062134,874.222778 
	C1068.997314,920.958618 1055.655762,965.582581 1035.318970,1008.068115 
	C1008.653259,1063.775146 972.139465,1112.072754 925.795654,1152.957886 
	C888.876221,1185.528687 847.806030,1211.521729 802.441711,1230.536255 
	C738.998230,1257.128418 672.873962,1268.783447 604.074280,1265.261108 
	C579.084961,1263.981689 554.419556,1260.700073 529.173950,1255.247314 
M1274.859009,872.222473 
	C1275.507080,860.758240 1276.457886,849.301636 1276.746826,837.828369 
	C1277.619995,803.156189 1275.727905,768.633545 1271.207520,734.219666 
	C1266.123901,695.517395 1257.530762,657.638489 1245.554810,620.527344 
	C1227.763672,565.395935 1202.824097,513.646790 1171.290039,465.068756 
	C1151.655029,434.821014 1129.453003,406.550262 1105.257324,379.837219 
	C1096.410034,370.069397 1085.250122,365.925110 1072.353394,368.572510 
	C1044.928345,374.202362 1035.072266,405.773132 1053.709106,427.052826 
	C1064.130249,438.951691 1074.736328,450.743347 1084.375854,463.263214 
	C1159.710449,561.106689 1200.768555,671.723083 1206.729004,795.121216 
	C1208.515991,832.115173 1206.391479,869.028076 1200.793457,905.667419 
	C1193.016479,956.565918 1179.034180,1005.691284 1158.268066,1052.864624 
	C1118.751221,1142.632202 1060.439087,1217.786255 982.986328,1277.943604 
	C927.330505,1321.171387 865.766602,1353.197266 798.426636,1374.140503 
	C747.585205,1389.952393 695.541931,1398.390991 642.384277,1399.857300 
	C601.662292,1400.980713 561.257202,1397.579224 521.194458,1390.088989 
	C451.767029,1377.108398 386.814575,1352.379028 326.385162,1315.854736 
	C270.707214,1282.202271 222.154633,1240.225708 180.684799,1190.100708 
	C145.210129,1147.222168 116.270050,1100.273682 94.586182,1049.026123 
	C86.558388,1030.053223 79.979996,1010.458984 72.980247,991.061707 
	C66.498711,973.100525 46.861450,963.419128 28.815929,969.589294 
	C10.892963,975.717529 0.371705,995.445435 6.757318,1012.920715 
	C16.229563,1038.843140 25.488956,1064.927734 36.705029,1090.112183 
	C65.406715,1154.558594 104.505554,1212.341675 152.660492,1263.851562 
	C205.971985,1320.877319 267.659637,1366.800537 337.658630,1401.502686 
	C396.657166,1430.751343 458.587860,1450.771240 523.625488,1461.202393 
	C565.148865,1467.862305 606.863892,1470.835205 648.938904,1469.277344 
	C677.083679,1468.235229 705.018677,1465.618286 732.803833,1461.097290 
	C793.637695,1451.199585 851.833069,1432.848877 907.336121,1406.146606 
	C988.857666,1366.927246 1059.532349,1313.387695 1118.768921,1244.887695 
	C1164.030029,1192.548462 1199.902954,1134.399292 1226.543579,1070.571045 
	C1246.099121,1023.717590 1260.242310,975.266541 1268.098389,925.078430 
	C1270.796631,907.841553 1272.589966,890.462952 1274.859009,872.222473 
M526.500000,1026.027344 
	C616.305664,1026.027344 706.111328,1026.029297 795.916992,1026.026245 
	C824.074951,1026.025269 852.234314,1026.182861 880.390320,1025.947266 
	C902.088623,1025.765747 918.311462,1004.587830 913.279175,983.526001 
	C909.275024,966.767334 895.496094,956.181519 877.410156,956.179443 
	C708.128967,956.159546 538.847778,956.167908 369.566620,956.168579 
	C368.900208,956.168579 368.233185,956.160156 367.567444,956.183716 
	C348.756775,956.849426 333.518585,971.616882 333.025635,989.654419 
	C332.475342,1009.789673 347.890411,1025.949463 368.048615,1025.985596 
	C420.532288,1026.079346 473.016174,1026.023560 526.500000,1026.027344 
M800.284119,1124.524902 
	C805.019104,1102.620850 789.186523,1082.046265 767.026672,1082.016968 
	C671.361755,1081.890747 575.696533,1081.937378 480.031494,1081.996216 
	C468.153687,1082.003418 458.774445,1087.429199 452.169830,1097.054932 
	C444.474731,1108.269897 443.672668,1120.377075 449.885834,1132.536377 
	C456.411163,1145.306763 467.434875,1151.418823 481.480499,1151.710693 
	C497.639954,1152.046265 513.811707,1151.791504 529.978149,1151.791504 
	C608.143616,1151.791504 686.309082,1151.807983 764.474548,1151.777832 
	C782.215210,1151.770996 795.356323,1141.938110 800.284119,1124.524902 
z"/>
<path fill="#FFBE58" opacity="1.000000" stroke="none" 
	d="
M529.575073,1255.375732 
	C554.419556,1260.700073 579.084961,1263.981689 604.074280,1265.261108 
	C672.873962,1268.783447 738.998230,1257.128418 802.441711,1230.536255 
	C847.806030,1211.521729 888.876221,1185.528687 925.795654,1152.957886 
	C972.139465,1112.072754 1008.653259,1063.775146 1035.318970,1008.068115 
	C1055.655762,965.582581 1068.997314,920.958618 1075.062134,874.222778 
	C1076.602295,862.353821 1077.363647,850.382263 1078.970703,838.523987 
	C1081.213135,821.974976 1096.185913,808.688660 1114.156860,809.381653 
	C1133.254150,810.118042 1148.654175,824.905762 1147.780518,842.803406 
	C1146.833984,862.193481 1144.718628,881.625916 1141.588989,900.791016 
	C1133.000977,953.381042 1116.281616,1003.416077 1091.974487,1050.864380 
	C1070.976929,1091.852295 1045.005371,1129.408691 1014.100403,1163.573242 
	C969.318970,1213.077881 917.004639,1252.629883 857.176147,1282.151733 
	C810.158813,1305.351929 760.711792,1321.011719 708.866028,1329.171021 
	C680.512451,1333.633301 652.000183,1336.043701 623.352173,1335.697632 
	C524.523010,1334.503906 432.906403,1308.244751 349.002167,1255.688110 
	C312.675659,1232.933594 279.594025,1206.128906 250.031799,1175.142456 
	C184.442841,1106.393433 140.419891,1025.767700 118.417740,933.280762 
	C111.672501,904.926819 107.148285,876.178284 105.884491,847.010742 
	C105.128357,829.559753 104.339882,812.092346 104.307495,794.630920 
	C104.147369,708.301514 104.234581,621.971619 104.234581,535.641907 
	C104.234581,533.671875 104.234581,531.701843 104.234581,529.142334 
	C148.879898,529.142334 193.098297,529.142334 237.985397,529.142334 
	C237.985397,526.456970 237.985397,524.354553 237.985397,522.252075 
	C237.985428,410.756744 238.009171,299.261414 237.890335,187.766220 
	C237.886002,183.701096 239.135956,181.695419 242.774734,179.876053 
	C356.859375,122.834404 470.881073,65.666855 584.915771,8.525177 
	C586.666565,7.647872 588.459412,6.854324 591.199890,5.567486 
	C591.199890,8.340269 591.199890,10.398520 591.199890,12.456769 
	C591.199890,111.952606 591.199707,211.448441 591.200439,310.944275 
	C591.200500,317.868042 591.203796,317.869873 598.305969,317.869934 
	C664.636536,317.870422 730.967102,317.870239 797.297668,317.870239 
	C799.278992,317.870239 801.260254,317.870239 803.776978,317.870239 
	C803.776978,378.780457 803.776978,439.357452 803.776978,500.511871 
	C853.880920,500.511871 903.454102,500.511871 953.468872,500.511871 
	C953.468872,628.803162 953.468872,756.516541 953.468872,884.680054 
	C930.597229,884.680054 907.590820,884.680054 884.089050,884.680054 
	C884.089050,779.931763 884.089050,675.349060 884.089050,570.429565 
	C857.347839,570.429565 831.096252,570.429565 804.182129,570.429565 
	C804.182129,675.085938 804.182129,779.784241 804.182129,884.805054 
	C709.934692,884.805054 616.347656,884.805054 522.172363,884.805054 
	C522.172363,627.140076 522.172363,369.425812 522.172363,110.601662 
	C519.572693,111.798676 517.845764,112.544044 516.161804,113.376396 
	C449.892212,146.132523 383.702881,179.053268 317.253296,211.439972 
	C309.834320,215.055893 307.596741,218.892227 307.624115,227.009583 
	C307.955841,325.337677 307.839172,423.667297 307.839203,521.996521 
	C307.839203,524.119751 307.839203,526.242981 307.839203,528.917542 
	C362.433472,528.917542 416.504913,528.917542 470.917725,528.917542 
	C470.917725,647.722168 470.917725,765.970276 470.917725,884.674194 
	C393.572723,884.674194 316.183563,884.674194 238.215164,884.674194 
	C238.215164,789.776794 238.215164,694.717346 238.215164,599.245483 
	C216.745392,599.245483 195.847092,599.245483 174.289444,599.245483 
	C174.216934,600.839905 174.068298,602.586182 174.068039,604.332458 
	C174.057556,673.662903 173.960297,742.993469 174.088776,812.323669 
	C174.229233,888.126587 191.618271,959.739563 227.476944,1026.610229 
	C261.604309,1090.252319 308.364899,1142.828003 367.517090,1184.320557 
	C415.525787,1217.996582 468.196533,1241.209595 525.266785,1254.528687 
	C526.554932,1254.829224 527.870911,1255.010376 529.575073,1255.375732 
M734.158447,723.500000 
	C734.158447,611.593140 734.158447,499.686218 734.158447,387.505463 
	C731.832153,387.401794 730.196777,387.265717 728.561462,387.265289 
	C685.403015,387.253632 642.244202,387.329224 599.086487,387.153107 
	C594.294922,387.133575 592.969299,388.453369 592.973694,393.266602 
	C593.099670,532.073486 593.099487,670.880493 592.973572,809.687317 
	C592.969238,814.459106 594.166199,815.873108 599.040405,815.852051 
	C642.197998,815.665894 685.356873,815.746643 728.515320,815.734009 
	C730.278442,815.733459 732.041626,815.587097 734.158630,815.492920 
	C734.158630,784.784302 734.158630,754.642151 734.158447,723.500000 
M363.500000,815.744690 
	C374.328888,815.744751 385.166626,815.487061 395.982666,815.859680 
	C400.964691,816.031311 402.003113,814.309387 401.993225,809.625000 
	C401.848846,741.320312 401.894043,673.015198 401.894043,604.710205 
	C401.894043,602.931396 401.894073,601.152588 401.894073,599.252808 
	C370.237701,599.252808 339.216980,599.252808 308.230896,599.252808 
	C308.230896,671.540222 308.230896,743.405151 308.230896,815.744202 
	C326.579803,815.744202 344.539917,815.744202 363.500000,815.744690 
z"/>
<path fill="#FFBE59" opacity="1.000000" stroke="none" 
	d="
M1274.827881,872.685791 
	C1272.589966,890.462952 1270.796631,907.841553 1268.098389,925.078430 
	C1260.242310,975.266541 1246.099121,1023.717590 1226.543579,1070.571045 
	C1199.902954,1134.399292 1164.030029,1192.548462 1118.768921,1244.887695 
	C1059.532349,1313.387695 988.857666,1366.927246 907.336121,1406.146606 
	C851.833069,1432.848877 793.637695,1451.199585 732.803833,1461.097290 
	C705.018677,1465.618286 677.083679,1468.235229 648.938904,1469.277344 
	C606.863892,1470.835205 565.148865,1467.862305 523.625488,1461.202393 
	C458.587860,1450.771240 396.657166,1430.751343 337.658630,1401.502686 
	C267.659637,1366.800537 205.971985,1320.877319 152.660492,1263.851562 
	C104.505554,1212.341675 65.406715,1154.558594 36.705029,1090.112183 
	C25.488956,1064.927734 16.229563,1038.843140 6.757318,1012.920715 
	C0.371705,995.445435 10.892963,975.717529 28.815929,969.589294 
	C46.861450,963.419128 66.498711,973.100525 72.980247,991.061707 
	C79.979996,1010.458984 86.558388,1030.053223 94.586182,1049.026123 
	C116.270050,1100.273682 145.210129,1147.222168 180.684799,1190.100708 
	C222.154633,1240.225708 270.707214,1282.202271 326.385162,1315.854736 
	C386.814575,1352.379028 451.767029,1377.108398 521.194458,1390.088989 
	C561.257202,1397.579224 601.662292,1400.980713 642.384277,1399.857300 
	C695.541931,1398.390991 747.585205,1389.952393 798.426636,1374.140503 
	C865.766602,1353.197266 927.330505,1321.171387 982.986328,1277.943604 
	C1060.439087,1217.786255 1118.751221,1142.632202 1158.268066,1052.864624 
	C1179.034180,1005.691284 1193.016479,956.565918 1200.793457,905.667419 
	C1206.391479,869.028076 1208.515991,832.115173 1206.729004,795.121216 
	C1200.768555,671.723083 1159.710449,561.106689 1084.375854,463.263214 
	C1074.736328,450.743347 1064.130249,438.951691 1053.709106,427.052826 
	C1035.072266,405.773132 1044.928345,374.202362 1072.353394,368.572510 
	C1085.250122,365.925110 1096.410034,370.069397 1105.257324,379.837219 
	C1129.453003,406.550262 1151.655029,434.821014 1171.290039,465.068756 
	C1202.824097,513.646790 1227.763672,565.395935 1245.554810,620.527344 
	C1257.530762,657.638489 1266.123901,695.517395 1271.207520,734.219666 
	C1275.727905,768.633545 1277.619995,803.156189 1276.746826,837.828369 
	C1276.457886,849.301636 1275.507080,860.758240 1274.827881,872.685791 
z"/>
<path fill="#FFBE59" opacity="1.000000" stroke="none" 
	d="
M526.000000,1026.027344 
	C473.016174,1026.023560 420.532288,1026.079346 368.048615,1025.985596 
	C347.890411,1025.949463 332.475342,1009.789673 333.025635,989.654419 
	C333.518585,971.616882 348.756775,956.849426 367.567444,956.183716 
	C368.233185,956.160156 368.900208,956.168579 369.566620,956.168579 
	C538.847778,956.167908 708.128967,956.159546 877.410156,956.179443 
	C895.496094,956.181519 909.275024,966.767334 913.279175,983.526001 
	C918.311462,1004.587830 902.088623,1025.765747 880.390320,1025.947266 
	C852.234314,1026.182861 824.074951,1026.025269 795.916992,1026.026245 
	C706.111328,1026.029297 616.305664,1026.027344 526.000000,1026.027344 
z"/>
<path fill="#FFBE59" opacity="1.000000" stroke="none" 
	d="
M800.188660,1124.933350 
	C795.356323,1141.938110 782.215210,1151.770996 764.474548,1151.777832 
	C686.309082,1151.807983 608.143616,1151.791504 529.978149,1151.791504 
	C513.811707,1151.791504 497.639954,1152.046265 481.480499,1151.710693 
	C467.434875,1151.418823 456.411163,1145.306763 449.885834,1132.536377 
	C443.672668,1120.377075 444.474731,1108.269897 452.169830,1097.054932 
	C458.774445,1087.429199 468.153687,1082.003418 480.031494,1081.996216 
	C575.696533,1081.937378 671.361755,1081.890747 767.026672,1082.016968 
	C789.186523,1082.046265 805.019104,1102.620850 800.188660,1124.933350 
z"/>
<path fill="#FFFFFE" opacity="1.000000" stroke="none" 
	d="
M734.158569,724.000000 
	C734.158630,754.642151 734.158630,784.784302 734.158630,815.492920 
	C732.041626,815.587097 730.278442,815.733459 728.515320,815.734009 
	C685.356873,815.746643 642.197998,815.665894 599.040405,815.852051 
	C594.166199,815.873108 592.969238,814.459106 592.973572,809.687317 
	C593.099487,670.880493 593.099670,532.073486 592.973694,393.266602 
	C592.969299,388.453369 594.294922,387.133575 599.086487,387.153107 
	C642.244202,387.329224 685.403015,387.253632 728.561462,387.265289 
	C730.196777,387.265717 731.832153,387.401794 734.158447,387.505463 
	C734.158447,499.686218 734.158447,611.593140 734.158569,724.000000 
z"/>
<path fill="#FFFFFE" opacity="1.000000" stroke="none" 
	d="
M363.000000,815.744446 
	C344.539917,815.744202 326.579803,815.744202 308.230896,815.744202 
	C308.230896,743.405151 308.230896,671.540222 308.230896,599.252808 
	C339.216980,599.252808 370.237701,599.252808 401.894073,599.252808 
	C401.894073,601.152588 401.894043,602.931396 401.894043,604.710205 
	C401.894043,673.015198 401.848846,741.320312 401.993225,809.625000 
	C402.003113,814.309387 400.964691,816.031311 395.982666,815.859680 
	C385.166626,815.487061 374.328888,815.744751 363.000000,815.744446 
z"/>
</svg>